<svg width="33" height="32" viewBox="0 0 33 32" fill="none" xmlns="http://www.w3.org/2000/svg">
<g clip-path="url(#clip0_2007_5929)">
<rect x="0.5" width="32" height="32" rx="16" fill="url(#paint0_linear_2007_5929)"/>
<path d="M51.6173 16.0557L16.4903 16.086C16.4903 16.086 16.4857 16.0842 16.4829 16.0833C16.4857 16.0814 16.4875 16.0805 16.4893 16.0796L51.6173 11.6742V3.24518L16.4783 16.0704C16.4783 16.0704 16.4857 16.0621 16.4884 16.0584L51.6173 -2.00079V-13.5071L16.4774 16.0492C16.4774 16.0492 16.4728 16.0511 16.47 16.052C16.4709 16.0492 16.4728 16.0456 16.4737 16.0437L51.6173 -21.892V-23.4353H39.2077L16.4636 16.0308C16.4636 16.0308 16.4581 16.0354 16.4553 16.0373C16.4553 16.0345 16.4553 16.0327 16.4553 16.0308L33.0448 -23.4353H23.3126L16.4424 16.029C16.4424 16.029 16.4397 16.0327 16.4388 16.0345C16.4378 16.0308 16.436 16.0281 16.4351 16.0253L18.3287 -23.4353H9.40857L16.4204 16.0216C16.4204 16.0216 16.4185 16.029 16.4185 16.0336C16.4167 16.0318 16.4158 16.0299 16.4148 16.029L4.16904 -23.4353H-6.52062L16.4029 16.0354C16.4029 16.0354 16.4029 16.0391 16.4029 16.0419C16.3992 16.04 16.3964 16.0373 16.3937 16.0364L-13.6483 -23.4353H-17.7437V-12.4752L16.3845 16.0456C16.3845 16.0456 16.3882 16.052 16.39 16.0557C16.3882 16.0557 16.3863 16.0557 16.3845 16.0547L-17.7437 -5.90491V3.7363L16.3753 16.0649C16.3753 16.0649 16.3817 16.0713 16.3863 16.075L-17.7437 8.38078V16.1633L16.3744 16.086C16.3744 16.086 16.3799 16.0888 16.3827 16.0897C16.3799 16.0915 16.3781 16.0925 16.3762 16.0934L-17.7437 20.4187V28.6031L16.3863 16.1026C16.3863 16.1026 16.379 16.1109 16.3762 16.1145L-17.7437 33.6955V44.8662L16.3872 16.1237C16.3872 16.1237 16.3918 16.1219 16.3946 16.1219C16.3937 16.1246 16.3918 16.1274 16.3909 16.1302L-11.5459 46.3055H-0.98863L16.401 16.1403C16.401 16.1403 16.4066 16.1357 16.4093 16.1338C16.4093 16.1357 16.4093 16.1384 16.4093 16.1403L3.71471 46.3055H11.1413L16.4222 16.1421C16.4222 16.1421 16.425 16.1384 16.4259 16.1366C16.4268 16.1394 16.4277 16.143 16.4286 16.1458L14.9442 46.3064H21.7463L16.4434 16.1513C16.4434 16.1513 16.4452 16.144 16.4461 16.1394C16.4479 16.1412 16.4489 16.1421 16.4498 16.143L25.7406 46.3064H33.8809L16.4617 16.1366C16.4617 16.1366 16.4617 16.1329 16.4617 16.1311C16.4654 16.1329 16.4682 16.1348 16.4709 16.1366L39.3043 46.3064H51.6182V45.6755L16.4801 16.1256C16.4801 16.1256 16.4765 16.1191 16.4746 16.1154C16.4765 16.1154 16.4792 16.1154 16.4811 16.1164L51.6182 38.8863V28.9342L16.4903 16.1063C16.4903 16.1063 16.4838 16.0998 16.4792 16.0961L51.6182 24.1453V16.0557H51.6173Z" fill="white" fill-opacity="0.19"/>
<g clip-path="url(#clip1_2007_5929)">
<path d="M15.3477 10.7396C15.2165 10.6088 15.0546 10.5131 14.8767 10.4614C14.6989 10.4097 14.5108 10.4037 14.33 10.4438C14.1492 10.4839 13.9814 10.5689 13.8421 10.691C13.7028 10.8131 13.5965 10.9683 13.533 11.1423L9.8695 21.2192C9.80931 21.3854 9.78987 21.5636 9.81281 21.7388C9.83574 21.9141 9.90038 22.0813 10.0013 22.2264C10.1022 22.3714 10.2365 22.4902 10.3928 22.5727C10.5491 22.6551 10.7229 22.6989 10.8997 22.7003C11.0298 22.6994 11.1588 22.6758 11.2807 22.6305L21.357 18.9663C21.531 18.9028 21.6863 18.7966 21.8085 18.6573C21.9306 18.5181 22.0157 18.3503 22.0559 18.1695C22.0961 17.9886 22.0901 17.8006 22.0385 17.6227C21.9868 17.4448 21.8912 17.2828 21.7604 17.1516L15.3477 10.7396ZM14.7663 20.1765L12.3235 17.7337L13.242 15.2064L17.2936 19.258L14.7663 20.1765ZM10.9276 21.5724L11.9047 18.8916L13.6112 20.5981L10.9276 21.5724ZM18.4542 18.8364L13.6635 14.0457L14.5709 11.5422L20.9522 17.9235L18.4542 18.8364ZM18.7334 12.0915C18.7439 11.714 18.8353 11.3432 19.0014 11.0041C19.3713 10.265 20.0693 9.85806 20.9668 9.85806C21.4345 9.85806 21.7346 9.69823 21.9195 9.35484C22.0169 9.16273 22.0728 8.95228 22.0836 8.73716C22.0841 8.58908 22.1435 8.44728 22.2486 8.34296C22.3537 8.23864 22.4959 8.18034 22.644 8.1809C22.7921 8.18145 22.9339 8.24081 23.0382 8.34592C23.1425 8.45102 23.2008 8.59326 23.2003 8.74135C23.2003 9.63891 22.6056 10.9748 20.9668 10.9748C20.4992 10.9748 20.1991 11.1346 20.0142 11.478C19.9168 11.6701 19.8609 11.8806 19.8501 12.0957C19.8499 12.169 19.8351 12.2416 19.8068 12.3092C19.7785 12.3768 19.7372 12.4382 19.6851 12.4899C19.6331 12.5415 19.5714 12.5824 19.5035 12.6102C19.4357 12.638 19.363 12.6522 19.2897 12.6519C19.2164 12.6517 19.1438 12.637 19.0762 12.6086C19.0085 12.5803 18.9471 12.539 18.8955 12.4869C18.8438 12.4349 18.8029 12.3732 18.7751 12.3053C18.7473 12.2375 18.7331 12.1648 18.7334 12.0915ZM17.0583 9.85806V8.18299C17.0583 8.03491 17.1172 7.89289 17.2219 7.78817C17.3266 7.68346 17.4686 7.62463 17.6167 7.62463C17.7648 7.62463 17.9068 7.68346 18.0115 7.78817C18.1162 7.89289 18.1751 8.03491 18.1751 8.18299V9.85806C18.1751 10.0061 18.1162 10.1482 18.0115 10.2529C17.9068 10.3576 17.7648 10.4164 17.6167 10.4164C17.4686 10.4164 17.3266 10.3576 17.2219 10.2529C17.1172 10.1482 17.0583 10.0061 17.0583 9.85806ZM24.1537 15.605C24.2055 15.6568 24.2466 15.7184 24.2746 15.7862C24.3027 15.8539 24.3171 15.9266 24.3171 15.9999C24.317 16.0732 24.3025 16.1458 24.2745 16.2136C24.2464 16.2813 24.2052 16.3428 24.1533 16.3947C24.1014 16.4465 24.0399 16.4876 23.9721 16.5157C23.9043 16.5437 23.8317 16.5581 23.7584 16.5581C23.6851 16.558 23.6124 16.5436 23.5447 16.5155C23.477 16.4874 23.4154 16.4462 23.3636 16.3943L22.2469 15.2776C22.1421 15.1728 22.0833 15.0307 22.0833 14.8826C22.0833 14.7344 22.1421 14.5923 22.2469 14.4875C22.3517 14.3828 22.4938 14.3239 22.6419 14.3239C22.7901 14.3239 22.9322 14.3828 23.037 14.4875L24.1537 15.605ZM24.4936 12.6212L22.8185 13.1796C22.678 13.2264 22.5247 13.2155 22.3922 13.1493C22.2597 13.0831 22.159 12.9669 22.1122 12.8264C22.0653 12.6859 22.0762 12.5326 22.1425 12.4001C22.2087 12.2677 22.3248 12.1669 22.4653 12.1201L24.1404 11.5618C24.2809 11.5149 24.4343 11.5258 24.5667 11.592C24.6992 11.6583 24.7999 11.7744 24.8467 11.9149C24.8936 12.0554 24.8827 12.2088 24.8164 12.3412C24.7502 12.4737 24.6341 12.5744 24.4936 12.6212Z" fill="white"/>
<path d="M18.4542 18.8364L13.6635 14.0457L14.5709 11.5422L20.9522 17.9235L18.4542 18.8364Z" fill="white"/>
<path d="M14.7663 20.1765L12.3235 17.7337L13.242 15.2064L17.2936 19.258L14.7663 20.1765Z" fill="white"/>
<path d="M10.9276 21.5724L11.9047 18.8916L13.6112 20.5981L10.9276 21.5724Z" fill="white"/>
</g>
</g>
<defs>
<linearGradient id="paint0_linear_2007_5929" x1="0.5" y1="13.813" x2="31.6983" y2="26.7017" gradientUnits="userSpaceOnUse">
<stop stop-color="#25BADB"/>
<stop offset="0.504" stop-color="#434AEC"/>
<stop offset="1" stop-color="#CC00FF"/>
</linearGradient>
<clipPath id="clip0_2007_5929">
<rect x="0.5" width="32" height="32" rx="16" fill="white"/>
</clipPath>
<clipPath id="clip1_2007_5929">
<rect width="17.8674" height="17.8674" fill="white" transform="translate(7.56628 7.06628)"/>
</clipPath>
</defs>
</svg>
