<svg width="205" height="34" viewBox="0 0 205 34" fill="none" xmlns="http://www.w3.org/2000/svg">
<g clip-path="url(#clip0_29_37023)">
<rect x="0.5" width="32" height="32" rx="16" fill="url(#paint0_linear_29_37023)"/>
<path d="M51.6173 16.0557L16.4903 16.086C16.4903 16.086 16.4857 16.0842 16.4829 16.0833C16.4857 16.0814 16.4875 16.0805 16.4893 16.0796L51.6173 11.6742V3.24518L16.4783 16.0704C16.4783 16.0704 16.4857 16.0621 16.4884 16.0584L51.6173 -2.00079V-13.5071L16.4774 16.0492C16.4774 16.0492 16.4728 16.0511 16.47 16.052C16.4709 16.0492 16.4728 16.0456 16.4737 16.0437L51.6173 -21.892V-23.4353H39.2077L16.4636 16.0308C16.4636 16.0308 16.4581 16.0354 16.4553 16.0373C16.4553 16.0345 16.4553 16.0327 16.4553 16.0308L33.0448 -23.4353H23.3126L16.4424 16.029C16.4424 16.029 16.4397 16.0327 16.4388 16.0345C16.4378 16.0308 16.436 16.0281 16.4351 16.0253L18.3287 -23.4353H9.40857L16.4204 16.0216C16.4204 16.0216 16.4185 16.029 16.4185 16.0336C16.4167 16.0318 16.4158 16.0299 16.4148 16.029L4.16904 -23.4353H-6.52062L16.4029 16.0354C16.4029 16.0354 16.4029 16.0391 16.4029 16.0419C16.3992 16.04 16.3964 16.0373 16.3937 16.0364L-13.6483 -23.4353H-17.7437V-12.4752L16.3845 16.0456C16.3845 16.0456 16.3882 16.052 16.39 16.0557C16.3882 16.0557 16.3863 16.0557 16.3845 16.0547L-17.7437 -5.90491V3.7363L16.3753 16.0649C16.3753 16.0649 16.3817 16.0713 16.3863 16.075L-17.7437 8.38078V16.1633L16.3744 16.086C16.3744 16.086 16.3799 16.0888 16.3827 16.0897C16.3799 16.0915 16.3781 16.0925 16.3762 16.0934L-17.7437 20.4187V28.6031L16.3863 16.1026C16.3863 16.1026 16.379 16.1109 16.3762 16.1145L-17.7437 33.6955V44.8662L16.3872 16.1237C16.3872 16.1237 16.3918 16.1219 16.3946 16.1219C16.3937 16.1246 16.3918 16.1274 16.3909 16.1302L-11.5459 46.3055H-0.98863L16.401 16.1403C16.401 16.1403 16.4066 16.1357 16.4093 16.1338C16.4093 16.1357 16.4093 16.1384 16.4093 16.1403L3.71471 46.3055H11.1413L16.4222 16.1421C16.4222 16.1421 16.425 16.1384 16.4259 16.1366C16.4268 16.1394 16.4277 16.143 16.4286 16.1458L14.9442 46.3064H21.7463L16.4434 16.1513C16.4434 16.1513 16.4452 16.144 16.4461 16.1394C16.4479 16.1412 16.4489 16.1421 16.4498 16.143L25.7406 46.3064H33.8809L16.4617 16.1366C16.4617 16.1366 16.4617 16.1329 16.4617 16.1311C16.4654 16.1329 16.4682 16.1348 16.4709 16.1366L39.3043 46.3064H51.6182V45.6755L16.4801 16.1256C16.4801 16.1256 16.4765 16.1191 16.4746 16.1154C16.4765 16.1154 16.4792 16.1154 16.4811 16.1164L51.6182 38.8863V28.9342L16.4903 16.1063C16.4903 16.1063 16.4838 16.0998 16.4792 16.0961L51.6182 24.1453V16.0557H51.6173Z" fill="white" fill-opacity="0.19"/>
<g clip-path="url(#clip1_29_37023)">
<path d="M15.3477 10.7396C15.2165 10.6088 15.0546 10.5131 14.8767 10.4614C14.6989 10.4097 14.5108 10.4037 14.33 10.4438C14.1492 10.4839 13.9814 10.5689 13.8421 10.691C13.7028 10.8131 13.5965 10.9683 13.533 11.1423L9.8695 21.2192C9.80931 21.3854 9.78987 21.5636 9.81281 21.7388C9.83574 21.9141 9.90038 22.0813 10.0013 22.2264C10.1022 22.3714 10.2365 22.4902 10.3928 22.5727C10.5491 22.6551 10.7229 22.6989 10.8997 22.7003C11.0298 22.6994 11.1588 22.6758 11.2807 22.6305L21.357 18.9663C21.531 18.9028 21.6863 18.7966 21.8085 18.6573C21.9306 18.5181 22.0157 18.3503 22.0559 18.1695C22.0961 17.9886 22.0901 17.8006 22.0385 17.6227C21.9868 17.4448 21.8912 17.2828 21.7604 17.1516L15.3477 10.7396ZM14.7663 20.1765L12.3235 17.7337L13.242 15.2064L17.2936 19.258L14.7663 20.1765ZM10.9276 21.5724L11.9047 18.8916L13.6112 20.5981L10.9276 21.5724ZM18.4542 18.8364L13.6635 14.0457L14.5709 11.5422L20.9522 17.9235L18.4542 18.8364ZM18.7334 12.0915C18.7439 11.714 18.8353 11.3432 19.0014 11.0041C19.3713 10.265 20.0693 9.85806 20.9668 9.85806C21.4345 9.85806 21.7346 9.69823 21.9195 9.35484C22.0169 9.16273 22.0728 8.95228 22.0836 8.73716C22.0841 8.58908 22.1435 8.44728 22.2486 8.34296C22.3537 8.23864 22.4959 8.18034 22.644 8.1809C22.7921 8.18145 22.9339 8.24081 23.0382 8.34592C23.1425 8.45102 23.2008 8.59326 23.2003 8.74135C23.2003 9.63891 22.6056 10.9748 20.9668 10.9748C20.4992 10.9748 20.1991 11.1346 20.0142 11.478C19.9168 11.6701 19.8609 11.8806 19.8501 12.0957C19.8499 12.169 19.8351 12.2416 19.8068 12.3092C19.7785 12.3768 19.7372 12.4382 19.6851 12.4899C19.6331 12.5415 19.5714 12.5824 19.5035 12.6102C19.4357 12.638 19.363 12.6522 19.2897 12.6519C19.2164 12.6517 19.1438 12.637 19.0762 12.6086C19.0085 12.5803 18.9471 12.539 18.8955 12.4869C18.8438 12.4349 18.8029 12.3732 18.7751 12.3053C18.7473 12.2375 18.7331 12.1648 18.7334 12.0915ZM17.0583 9.85806V8.18299C17.0583 8.03491 17.1172 7.89289 17.2219 7.78817C17.3266 7.68346 17.4686 7.62463 17.6167 7.62463C17.7648 7.62463 17.9068 7.68346 18.0115 7.78817C18.1162 7.89289 18.1751 8.03491 18.1751 8.18299V9.85806C18.1751 10.0061 18.1162 10.1482 18.0115 10.2529C17.9068 10.3576 17.7648 10.4164 17.6167 10.4164C17.4686 10.4164 17.3266 10.3576 17.2219 10.2529C17.1172 10.1482 17.0583 10.0061 17.0583 9.85806ZM24.1537 15.605C24.2055 15.6568 24.2466 15.7184 24.2746 15.7862C24.3027 15.8539 24.3171 15.9266 24.3171 15.9999C24.317 16.0732 24.3025 16.1458 24.2745 16.2136C24.2464 16.2813 24.2052 16.3428 24.1533 16.3947C24.1014 16.4465 24.0399 16.4876 23.9721 16.5157C23.9043 16.5437 23.8317 16.5581 23.7584 16.5581C23.6851 16.558 23.6124 16.5436 23.5447 16.5155C23.477 16.4874 23.4154 16.4462 23.3636 16.3943L22.2469 15.2776C22.1421 15.1728 22.0833 15.0307 22.0833 14.8826C22.0833 14.7344 22.1421 14.5923 22.2469 14.4875C22.3517 14.3828 22.4938 14.3239 22.6419 14.3239C22.7901 14.3239 22.9322 14.3828 23.037 14.4875L24.1537 15.605ZM24.4936 12.6212L22.8185 13.1796C22.678 13.2264 22.5247 13.2155 22.3922 13.1493C22.2597 13.0831 22.159 12.9669 22.1122 12.8264C22.0653 12.6859 22.0762 12.5326 22.1425 12.4001C22.2087 12.2677 22.3248 12.1669 22.4653 12.1201L24.1404 11.5618C24.2809 11.5149 24.4343 11.5258 24.5667 11.592C24.6992 11.6583 24.7999 11.7744 24.8467 11.9149C24.8936 12.0554 24.8827 12.2088 24.8164 12.3412C24.7502 12.4737 24.6341 12.5744 24.4936 12.6212Z" fill="white"/>
<path d="M18.4542 18.8364L13.6635 14.0457L14.5709 11.5422L20.9522 17.9235L18.4542 18.8364Z" fill="white"/>
<path d="M14.7663 20.1765L12.3235 17.7337L13.242 15.2064L17.2936 19.258L14.7663 20.1765Z" fill="white"/>
<path d="M10.9276 21.5724L11.9047 18.8916L13.6112 20.5981L10.9276 21.5724Z" fill="white"/>
</g>
</g>
<path d="M48.024 10.18V14.156H54.436V17.852H48.024V22.164H55.276V26H43.236V6.344H55.276V10.18H48.024ZM62.4224 12.588C62.8891 11.86 63.5331 11.272 64.3544 10.824C65.1758 10.376 66.1371 10.152 67.2384 10.152C68.5264 10.152 69.6931 10.4787 70.7384 11.132C71.7838 11.7853 72.6051 12.7187 73.2024 13.932C73.8184 15.1453 74.1264 16.5547 74.1264 18.16C74.1264 19.7653 73.8184 21.184 73.2024 22.416C72.6051 23.6293 71.7838 24.572 70.7384 25.244C69.6931 25.8973 68.5264 26.224 67.2384 26.224C66.1558 26.224 65.1944 26 64.3544 25.552C63.5331 25.104 62.8891 24.5253 62.4224 23.816V33.448H57.6344V10.376H62.4224V12.588ZM69.2544 18.16C69.2544 16.9653 68.9184 16.032 68.2464 15.36C67.5931 14.6693 66.7811 14.324 65.8104 14.324C64.8584 14.324 64.0464 14.6693 63.3744 15.36C62.7211 16.0507 62.3944 16.9933 62.3944 18.188C62.3944 19.3827 62.7211 20.3253 63.3744 21.016C64.0464 21.7067 64.8584 22.052 65.8104 22.052C66.7624 22.052 67.5744 21.7067 68.2464 21.016C68.9184 20.3067 69.2544 19.3547 69.2544 18.16ZM78.2963 8.752C77.4563 8.752 76.7657 8.50933 76.2243 8.024C75.7017 7.52 75.4403 6.904 75.4403 6.176C75.4403 5.42933 75.7017 4.81333 76.2243 4.328C76.7657 3.824 77.4563 3.572 78.2963 3.572C79.1177 3.572 79.7897 3.824 80.3123 4.328C80.8537 4.81333 81.1243 5.42933 81.1243 6.176C81.1243 6.904 80.8537 7.52 80.3123 8.024C79.7897 8.50933 79.1177 8.752 78.2963 8.752ZM80.6763 10.376V26H75.8883V10.376H80.6763ZM82.4442 18.188C82.4442 16.564 82.7708 15.1453 83.4242 13.932C84.0962 12.7187 85.0202 11.7853 86.1962 11.132C87.3908 10.4787 88.7535 10.152 90.2842 10.152C92.2442 10.152 93.8775 10.6653 95.1842 11.692C96.5095 12.7187 97.3775 14.1653 97.7882 16.032H92.6922C92.2628 14.8373 91.4322 14.24 90.2002 14.24C89.3228 14.24 88.6228 14.5853 88.1002 15.276C87.5775 15.948 87.3162 16.9187 87.3162 18.188C87.3162 19.4573 87.5775 20.4373 88.1002 21.128C88.6228 21.8 89.3228 22.136 90.2002 22.136C91.4322 22.136 92.2628 21.5387 92.6922 20.344H97.7882C97.3775 22.1733 96.5095 23.6107 95.1842 24.656C93.8588 25.7013 92.2255 26.224 90.2842 26.224C88.7535 26.224 87.3908 25.8973 86.1962 25.244C85.0202 24.5907 84.0962 23.6573 83.4242 22.444C82.7708 21.2307 82.4442 19.812 82.4442 18.188ZM114.579 12.672C114.579 13.8107 114.318 14.856 113.795 15.808C113.273 16.7413 112.47 17.4973 111.387 18.076C110.305 18.6547 108.961 18.944 107.355 18.944H104.387V26H99.5993V6.344H107.355C108.923 6.344 110.249 6.61467 111.331 7.156C112.414 7.69733 113.226 8.444 113.767 9.396C114.309 10.348 114.579 11.44 114.579 12.672ZM106.991 15.136C107.906 15.136 108.587 14.9213 109.035 14.492C109.483 14.0627 109.707 13.456 109.707 12.672C109.707 11.888 109.483 11.2813 109.035 10.852C108.587 10.4227 107.906 10.208 106.991 10.208H104.387V15.136H106.991ZM115.37 18.16C115.37 16.5547 115.669 15.1453 116.266 13.932C116.882 12.7187 117.713 11.7853 118.758 11.132C119.803 10.4787 120.97 10.152 122.258 10.152C123.359 10.152 124.321 10.376 125.142 10.824C125.982 11.272 126.626 11.86 127.074 12.588V10.376H131.862V26H127.074V23.788C126.607 24.516 125.954 25.104 125.114 25.552C124.293 26 123.331 26.224 122.23 26.224C120.961 26.224 119.803 25.8973 118.758 25.244C117.713 24.572 116.882 23.6293 116.266 22.416C115.669 21.184 115.37 19.7653 115.37 18.16ZM127.074 18.188C127.074 16.9933 126.738 16.0507 126.066 15.36C125.413 14.6693 124.61 14.324 123.658 14.324C122.706 14.324 121.894 14.6693 121.222 15.36C120.569 16.032 120.242 16.9653 120.242 18.16C120.242 19.3547 120.569 20.3067 121.222 21.016C121.894 21.7067 122.706 22.052 123.658 22.052C124.61 22.052 125.413 21.7067 126.066 21.016C126.738 20.3253 127.074 19.3827 127.074 18.188ZM139.364 12.98C139.924 12.1213 140.624 11.4493 141.464 10.964C142.304 10.46 143.237 10.208 144.264 10.208V15.276H142.948C141.753 15.276 140.857 15.5373 140.26 16.06C139.663 16.564 139.364 17.46 139.364 18.748V26H134.576V10.376H139.364V12.98ZM154.51 21.94V26H152.074C150.338 26 148.985 25.58 148.014 24.74C147.044 23.8813 146.558 22.4907 146.558 20.568V14.352H144.654V10.376H146.558V6.568H151.346V10.376H154.482V14.352H151.346V20.624C151.346 21.0907 151.458 21.4267 151.682 21.632C151.906 21.8373 152.28 21.94 152.802 21.94H154.51ZM172.387 10.376L162.587 33.42H157.435L161.019 25.468L154.663 10.376H160.011L163.623 20.148L167.207 10.376H172.387ZM175.609 26.224C174.769 26.224 174.078 25.9813 173.537 25.496C173.014 24.992 172.753 24.376 172.753 23.648C172.753 22.9013 173.014 22.276 173.537 21.772C174.078 21.268 174.769 21.016 175.609 21.016C176.43 21.016 177.102 21.268 177.625 21.772C178.166 22.276 178.437 22.9013 178.437 23.648C178.437 24.376 178.166 24.992 177.625 25.496C177.102 25.9813 176.43 26.224 175.609 26.224ZM182.929 8.752C182.089 8.752 181.398 8.50933 180.857 8.024C180.334 7.52 180.073 6.904 180.073 6.176C180.073 5.42933 180.334 4.81333 180.857 4.328C181.398 3.824 182.089 3.572 182.929 3.572C183.75 3.572 184.422 3.824 184.945 4.328C185.486 4.81333 185.757 5.42933 185.757 6.176C185.757 6.904 185.486 7.52 184.945 8.024C184.422 8.50933 183.75 8.752 182.929 8.752ZM185.309 10.376V26H180.521V10.376H185.309ZM195.141 26.224C193.61 26.224 192.229 25.8973 190.997 25.244C189.784 24.5907 188.822 23.6573 188.113 22.444C187.422 21.2307 187.077 19.812 187.077 18.188C187.077 16.5827 187.432 15.1733 188.141 13.96C188.85 12.728 189.821 11.7853 191.053 11.132C192.285 10.4787 193.666 10.152 195.197 10.152C196.728 10.152 198.109 10.4787 199.341 11.132C200.573 11.7853 201.544 12.728 202.253 13.96C202.962 15.1733 203.317 16.5827 203.317 18.188C203.317 19.7933 202.953 21.212 202.225 22.444C201.516 23.6573 200.536 24.5907 199.285 25.244C198.053 25.8973 196.672 26.224 195.141 26.224ZM195.141 22.08C196.056 22.08 196.83 21.744 197.465 21.072C198.118 20.4 198.445 19.4387 198.445 18.188C198.445 16.9373 198.128 15.976 197.493 15.304C196.877 14.632 196.112 14.296 195.197 14.296C194.264 14.296 193.489 14.632 192.873 15.304C192.257 15.9573 191.949 16.9187 191.949 18.188C191.949 19.4387 192.248 20.4 192.845 21.072C193.461 21.744 194.226 22.08 195.141 22.08Z" fill="#2B2B2B"/>
<defs>
<linearGradient id="paint0_linear_29_37023" x1="0.5" y1="13.813" x2="31.6983" y2="26.7017" gradientUnits="userSpaceOnUse">
<stop stop-color="#25BADB"/>
<stop offset="0.504" stop-color="#434AEC"/>
<stop offset="1" stop-color="#CC00FF"/>
</linearGradient>
<clipPath id="clip0_29_37023">
<rect x="0.5" width="32" height="32" rx="16" fill="white"/>
</clipPath>
<clipPath id="clip1_29_37023">
<rect width="17.8674" height="17.8674" fill="white" transform="translate(7.56628 7.06628)"/>
</clipPath>
</defs>
</svg>
