<svg width="36" height="37" viewBox="0 0 36 37" fill="none" xmlns="http://www.w3.org/2000/svg">
<mask id="mask0_443_1184" style="mask-type:alpha" maskUnits="userSpaceOnUse" x="5" y="6" width="26" height="26">
<ellipse cx="17.8074" cy="18.5365" rx="12.6591" ry="12.2305" transform="rotate(49.282 17.8074 18.5365)" fill="url(#paint0_radial_443_1184)"/>
<ellipse cx="17.8074" cy="18.5365" rx="12.6591" ry="12.2305" transform="rotate(49.282 17.8074 18.5365)" fill="url(#paint1_radial_443_1184)"/>
<ellipse cx="17.8074" cy="18.5365" rx="12.6591" ry="12.2305" transform="rotate(49.282 17.8074 18.5365)" fill="url(#paint2_radial_443_1184)"/>
</mask>
<g mask="url(#mask0_443_1184)">
<g filter="url(#filter0_f_443_1184)">
<path d="M26.5694 24.0566C26.5694 24.0566 25.4276 28.4935 24.2505 29.6932C9.19476 38.4506 -0.599118 25.234 6.36359 26.0443C15.0161 27.0513 18.6169 30.9012 26.5694 24.0566Z" fill="#91A4C9" fill-opacity="0.08"/>
</g>
</g>
<defs>
<filter id="filter0_f_443_1184" x="-7.6075" y="12.371" width="45.8625" height="32.0182" filterUnits="userSpaceOnUse" color-interpolation-filters="sRGB">
<feFlood flood-opacity="0" result="BackgroundImageFix"/>
<feBlend mode="normal" in="SourceGraphic" in2="BackgroundImageFix" result="shape"/>
<feGaussianBlur stdDeviation="5.84281" result="effect1_foregroundBlur_443_1184"/>
</filter>
<radialGradient id="paint0_radial_443_1184" cx="0" cy="0" r="1" gradientUnits="userSpaceOnUse" gradientTransform="translate(14.0996 16.0036) rotate(24.3357) scale(28.3627 26.9225)">
<stop offset="0.354167" stop-color="#DAE5FC"/>
<stop offset="0.810035" stop-color="#91A4C9"/>
</radialGradient>
<radialGradient id="paint1_radial_443_1184" cx="0" cy="0" r="1" gradientUnits="userSpaceOnUse" gradientTransform="translate(11.8899 26.0268) rotate(-52.9133) scale(16.1483 18.2273)">
<stop stop-opacity="0.61"/>
<stop offset="1" stop-opacity="0"/>
</radialGradient>
<radialGradient id="paint2_radial_443_1184" cx="0" cy="0" r="1" gradientUnits="userSpaceOnUse" gradientTransform="translate(25.6351 18.5365) rotate(180) scale(21.6104 16.7986)">
<stop stop-color="white" stop-opacity="0"/>
<stop offset="0.827012" stop-color="white" stop-opacity="0"/>
<stop offset="1" stop-color="white"/>
</radialGradient>
</defs>
</svg>
