<svg width="305" height="32" viewBox="0 0 305 32" fill="none" xmlns="http://www.w3.org/2000/svg">
<path d="M14.136 15.92C15.2747 16.1627 16.1893 16.732 16.88 17.628C17.5707 18.5053 17.916 19.5133 17.916 20.652C17.916 22.2947 17.3373 23.6013 16.18 24.572C15.0413 25.524 13.4453 26 11.392 26H2.236V6.344H11.084C13.0813 6.344 14.64 6.80133 15.76 7.716C16.8987 8.63067 17.468 9.872 17.468 11.44C17.468 12.5973 17.16 13.5587 16.544 14.324C15.9467 15.0893 15.144 15.6213 14.136 15.92ZM7.024 14.296H10.16C10.944 14.296 11.5413 14.128 11.952 13.792C12.3813 13.4373 12.596 12.924 12.596 12.252C12.596 11.58 12.3813 11.0667 11.952 10.712C11.5413 10.3573 10.944 10.18 10.16 10.18H7.024V14.296ZM10.552 22.136C11.3547 22.136 11.9707 21.9587 12.4 21.604C12.848 21.2307 13.072 20.6987 13.072 20.008C13.072 19.3173 12.8387 18.776 12.372 18.384C11.924 17.992 11.2987 17.796 10.496 17.796H7.024V22.136H10.552ZM32.179 22.528H24.843L23.667 26H18.655L25.767 6.344H31.311L38.423 26H33.355L32.179 22.528ZM30.947 18.832L28.511 11.636L26.103 18.832H30.947ZM49.8616 26L45.7736 18.58H44.6256V26H39.8376V6.344H47.8736C49.4229 6.344 50.7389 6.61467 51.8216 7.156C52.9229 7.69733 53.7442 8.444 54.2856 9.396C54.8269 10.3293 55.0976 11.3747 55.0976 12.532C55.0976 13.8387 54.7242 15.0053 53.9776 16.032C53.2496 17.0587 52.1669 17.7867 50.7296 18.216L55.2656 26H49.8616ZM44.6256 15.192H47.5936C48.4709 15.192 49.1242 14.9773 49.5536 14.548C50.0016 14.1187 50.2256 13.512 50.2256 12.728C50.2256 11.9813 50.0016 11.3933 49.5536 10.964C49.1242 10.5347 48.4709 10.32 47.5936 10.32H44.6256V15.192ZM56.5412 16.144C56.5412 14.2027 56.9612 12.476 57.8012 10.964C58.6412 9.43333 59.8079 8.248 61.3012 7.408C62.8132 6.54933 64.5212 6.12 66.4252 6.12C68.7585 6.12 70.7559 6.736 72.4172 7.968C74.0785 9.2 75.1892 10.88 75.7492 13.008H70.4852C70.0932 12.1867 69.5332 11.5613 68.8052 11.132C68.0959 10.7027 67.2839 10.488 66.3692 10.488C64.8945 10.488 63.6999 11.0013 62.7852 12.028C61.8705 13.0547 61.4132 14.4267 61.4132 16.144C61.4132 17.8613 61.8705 19.2333 62.7852 20.26C63.6999 21.2867 64.8945 21.8 66.3692 21.8C67.2839 21.8 68.0959 21.5853 68.8052 21.156C69.5332 20.7267 70.0932 20.1013 70.4852 19.28H75.7492C75.1892 21.408 74.0785 23.088 72.4172 24.32C70.7559 25.5333 68.7585 26.14 66.4252 26.14C64.5212 26.14 62.8132 25.72 61.3012 24.88C59.8079 24.0213 58.6412 22.836 57.8012 21.324C56.9612 19.812 56.5412 18.0853 56.5412 16.144ZM82.7193 10.18V14.156H89.1313V17.852H82.7193V22.164H89.9713V26H77.9313V6.344H89.9713V10.18H82.7193ZM97.1178 22.304H103.39V26H92.3298V6.344H97.1178V22.304ZM114.22 26.196C112.372 26.196 110.673 25.7667 109.124 24.908C107.593 24.0493 106.37 22.8547 105.456 21.324C104.559 19.7747 104.111 18.0387 104.111 16.116C104.111 14.1933 104.559 12.4667 105.456 10.936C106.37 9.40533 107.593 8.21067 109.124 7.352C110.673 6.49333 112.372 6.064 114.22 6.064C116.068 6.064 117.757 6.49333 119.288 7.352C120.837 8.21067 122.05 9.40533 122.928 10.936C123.824 12.4667 124.272 14.1933 124.272 16.116C124.272 18.0387 123.824 19.7747 122.928 21.324C122.032 22.8547 120.818 24.0493 119.288 24.908C117.757 25.7667 116.068 26.196 114.22 26.196ZM114.22 21.828C115.788 21.828 117.038 21.3053 117.971 20.26C118.924 19.2147 119.4 17.8333 119.4 16.116C119.4 14.38 118.924 12.9987 117.971 11.972C117.038 10.9267 115.788 10.404 114.22 10.404C112.633 10.404 111.364 10.9173 110.412 11.944C109.478 12.9707 109.012 14.3613 109.012 16.116C109.012 17.852 109.478 19.2427 110.412 20.288C111.364 21.3147 112.633 21.828 114.22 21.828ZM143.769 26H138.981L130.973 13.876V26H126.185V6.344H130.973L138.981 18.524V6.344H143.769V26ZM158.726 22.528H151.39L150.214 26H145.202L152.314 6.344H157.858L164.97 26H159.902L158.726 22.528ZM157.494 18.832L155.058 11.636L152.65 18.832H157.494Z" fill="#2B2B2B"/>
<g clip-path="url(#clip0_29_37023)">
<rect x="174.5" width="32" height="32" rx="16" fill="url(#paint0_linear_29_37023)"/>
<path d="M225.617 16.0557L190.49 16.086C190.49 16.086 190.486 16.0842 190.483 16.0833C190.486 16.0814 190.487 16.0805 190.489 16.0796L225.617 11.6742V3.24518L190.478 16.0704C190.478 16.0704 190.486 16.0621 190.488 16.0584L225.617 -2.00079V-13.5071L190.477 16.0492C190.477 16.0492 190.473 16.0511 190.47 16.052C190.471 16.0492 190.473 16.0456 190.474 16.0437L225.617 -21.892V-23.4353H213.208L190.464 16.0308C190.464 16.0308 190.458 16.0354 190.455 16.0373C190.455 16.0345 190.455 16.0327 190.455 16.0308L207.045 -23.4353H197.313L190.442 16.029C190.442 16.029 190.44 16.0327 190.439 16.0345C190.438 16.0308 190.436 16.0281 190.435 16.0253L192.329 -23.4353H183.409L190.42 16.0216C190.42 16.0216 190.419 16.029 190.419 16.0336C190.417 16.0318 190.416 16.0299 190.415 16.029L178.169 -23.4353H167.479L190.403 16.0354C190.403 16.0354 190.403 16.0391 190.403 16.0419C190.399 16.04 190.396 16.0373 190.394 16.0364L160.352 -23.4353H156.256V-12.4752L190.384 16.0456C190.384 16.0456 190.388 16.052 190.39 16.0557C190.388 16.0557 190.386 16.0557 190.384 16.0547L156.256 -5.90491V3.7363L190.375 16.0649C190.375 16.0649 190.382 16.0713 190.386 16.075L156.256 8.38078V16.1633L190.374 16.086C190.374 16.086 190.38 16.0888 190.383 16.0897C190.38 16.0915 190.378 16.0925 190.376 16.0934L156.256 20.4187V28.6031L190.386 16.1026C190.386 16.1026 190.379 16.1109 190.376 16.1145L156.256 33.6955V44.8662L190.387 16.1237C190.387 16.1237 190.392 16.1219 190.395 16.1219C190.394 16.1246 190.392 16.1274 190.391 16.1302L162.454 46.3055H173.011L190.401 16.1403C190.401 16.1403 190.407 16.1357 190.409 16.1338C190.409 16.1357 190.409 16.1384 190.409 16.1403L177.715 46.3055H185.141L190.422 16.1421C190.422 16.1421 190.425 16.1384 190.426 16.1366C190.427 16.1394 190.428 16.143 190.429 16.1458L188.944 46.3064H195.746L190.443 16.1513C190.443 16.1513 190.445 16.144 190.446 16.1394C190.448 16.1412 190.449 16.1421 190.45 16.143L199.741 46.3064H207.881L190.462 16.1366C190.462 16.1366 190.462 16.1329 190.462 16.1311C190.465 16.1329 190.468 16.1348 190.471 16.1366L213.304 46.3064H225.618V45.6755L190.48 16.1256C190.48 16.1256 190.476 16.1191 190.475 16.1154C190.476 16.1154 190.479 16.1154 190.481 16.1164L225.618 38.8863V28.9342L190.49 16.1063C190.49 16.1063 190.484 16.0998 190.479 16.0961L225.618 24.1453V16.0557H225.617Z" fill="white" fill-opacity="0.19"/>
<g clip-path="url(#clip1_29_37023)">
<path d="M189.348 10.7396C189.217 10.6088 189.055 10.5131 188.877 10.4614C188.699 10.4097 188.511 10.4037 188.33 10.4438C188.149 10.4839 187.981 10.5689 187.842 10.691C187.703 10.8131 187.597 10.9683 187.533 11.1423L183.869 21.2192C183.809 21.3854 183.79 21.5636 183.813 21.7388C183.836 21.9141 183.9 22.0813 184.001 22.2264C184.102 22.3714 184.236 22.4902 184.393 22.5727C184.549 22.6551 184.723 22.6989 184.9 22.7003C185.03 22.6994 185.159 22.6758 185.281 22.6305L195.357 18.9663C195.531 18.9028 195.686 18.7966 195.808 18.6573C195.931 18.5181 196.016 18.3503 196.056 18.1695C196.096 17.9886 196.09 17.8006 196.038 17.6227C195.987 17.4448 195.891 17.2828 195.76 17.1516L189.348 10.7396ZM188.766 20.1765L186.323 17.7337L187.242 15.2064L191.294 19.258L188.766 20.1765ZM184.928 21.5724L185.905 18.8916L187.611 20.5981L184.928 21.5724ZM192.454 18.8364L187.664 14.0457L188.571 11.5422L194.952 17.9235L192.454 18.8364ZM192.733 12.0915C192.744 11.714 192.835 11.3432 193.001 11.0041C193.371 10.265 194.069 9.85806 194.967 9.85806C195.434 9.85806 195.735 9.69823 195.92 9.35484C196.017 9.16273 196.073 8.95228 196.084 8.73716C196.084 8.58908 196.143 8.44728 196.249 8.34296C196.354 8.23864 196.496 8.18034 196.644 8.1809C196.792 8.18145 196.934 8.24081 197.038 8.34592C197.143 8.45102 197.201 8.59326 197.2 8.74135C197.2 9.63891 196.606 10.9748 194.967 10.9748C194.499 10.9748 194.199 11.1346 194.014 11.478C193.917 11.6701 193.861 11.8806 193.85 12.0957C193.85 12.169 193.835 12.2416 193.807 12.3092C193.779 12.3768 193.737 12.4382 193.685 12.4899C193.633 12.5415 193.571 12.5824 193.504 12.6102C193.436 12.638 193.363 12.6522 193.29 12.6519C193.216 12.6517 193.144 12.637 193.076 12.6086C193.009 12.5803 192.947 12.539 192.895 12.4869C192.844 12.4349 192.803 12.3732 192.775 12.3053C192.747 12.2375 192.733 12.1648 192.733 12.0915ZM191.058 9.85806V8.18299C191.058 8.03491 191.117 7.89289 191.222 7.78817C191.327 7.68346 191.469 7.62463 191.617 7.62463C191.765 7.62463 191.907 7.68346 192.012 7.78817C192.116 7.89289 192.175 8.03491 192.175 8.18299V9.85806C192.175 10.0061 192.116 10.1482 192.012 10.2529C191.907 10.3576 191.765 10.4164 191.617 10.4164C191.469 10.4164 191.327 10.3576 191.222 10.2529C191.117 10.1482 191.058 10.0061 191.058 9.85806ZM198.154 15.605C198.206 15.6568 198.247 15.7184 198.275 15.7862C198.303 15.8539 198.317 15.9266 198.317 15.9999C198.317 16.0732 198.303 16.1458 198.274 16.2136C198.246 16.2813 198.205 16.3428 198.153 16.3947C198.101 16.4465 198.04 16.4876 197.972 16.5157C197.904 16.5437 197.832 16.5581 197.758 16.5581C197.685 16.558 197.612 16.5436 197.545 16.5155C197.477 16.4874 197.415 16.4462 197.364 16.3943L196.247 15.2776C196.142 15.1728 196.083 15.0307 196.083 14.8826C196.083 14.7344 196.142 14.5923 196.247 14.4875C196.352 14.3828 196.494 14.3239 196.642 14.3239C196.79 14.3239 196.932 14.3828 197.037 14.4875L198.154 15.605ZM198.494 12.6212L196.818 13.1796C196.678 13.2264 196.525 13.2155 196.392 13.1493C196.26 13.0831 196.159 12.9669 196.112 12.8264C196.065 12.6859 196.076 12.5326 196.142 12.4001C196.209 12.2677 196.325 12.1669 196.465 12.1201L198.14 11.5618C198.281 11.5149 198.434 11.5258 198.567 11.592C198.699 11.6583 198.8 11.7744 198.847 11.9149C198.894 12.0554 198.883 12.2088 198.816 12.3412C198.75 12.4737 198.634 12.5744 198.494 12.6212Z" fill="white"/>
<path d="M192.454 18.8364L187.664 14.0457L188.571 11.5422L194.952 17.9235L192.454 18.8364Z" fill="white"/>
<path d="M188.766 20.1765L186.323 17.7337L187.242 15.2064L191.294 19.258L188.766 20.1765Z" fill="white"/>
<path d="M184.928 21.5724L185.905 18.8916L187.611 20.5981L184.928 21.5724Z" fill="white"/>
</g>
</g>
<path d="M232.216 12.672C232.216 13.8107 231.955 14.856 231.432 15.808C230.909 16.7413 230.107 17.4973 229.024 18.076C227.941 18.6547 226.597 18.944 224.992 18.944H222.024V26H217.236V6.344H224.992C226.56 6.344 227.885 6.61467 228.968 7.156C230.051 7.69733 230.863 8.444 231.404 9.396C231.945 10.348 232.216 11.44 232.216 12.672ZM224.628 15.136C225.543 15.136 226.224 14.9213 226.672 14.492C227.12 14.0627 227.344 13.456 227.344 12.672C227.344 11.888 227.12 11.2813 226.672 10.852C226.224 10.4227 225.543 10.208 224.628 10.208H222.024V15.136H224.628ZM246.195 22.528H238.859L237.683 26H232.671L239.783 6.344H245.327L252.439 26H247.371L246.195 22.528ZM244.963 18.832L242.527 11.636L240.119 18.832H244.963ZM263.877 26L259.789 18.58H258.641V26H253.853V6.344H261.889C263.439 6.344 264.755 6.61467 265.837 7.156C266.939 7.69733 267.76 8.444 268.301 9.396C268.843 10.3293 269.113 11.3747 269.113 12.532C269.113 13.8387 268.74 15.0053 267.993 16.032C267.265 17.0587 266.183 17.7867 264.745 18.216L269.281 26H263.877ZM258.641 15.192H261.609C262.487 15.192 263.14 14.9773 263.569 14.548C264.017 14.1187 264.241 13.512 264.241 12.728C264.241 11.9813 264.017 11.3933 263.569 10.964C263.14 10.5347 262.487 10.32 261.609 10.32H258.641V15.192ZM285.509 6.344V10.18H280.301V26H275.513V10.18H270.305V6.344H285.509ZM304.018 6.344L297.214 19.504V26H292.426V19.504L285.622 6.344H291.054L294.862 14.576L298.642 6.344H304.018Z" fill="#2B2B2B"/>
<defs>
<linearGradient id="paint0_linear_29_37023" x1="174.5" y1="13.813" x2="205.698" y2="26.7017" gradientUnits="userSpaceOnUse">
<stop stop-color="#25BADB"/>
<stop offset="0.504" stop-color="#434AEC"/>
<stop offset="1" stop-color="#CC00FF"/>
</linearGradient>
<clipPath id="clip0_29_37023">
<rect x="174.5" width="32" height="32" rx="16" fill="white"/>
</clipPath>
<clipPath id="clip1_29_37023">
<rect width="17.8674" height="17.8674" fill="white" transform="translate(181.566 7.06628)"/>
</clipPath>
</defs>
</svg>
