<svg width="357" height="358" viewBox="0 0 357 358" fill="none" xmlns="http://www.w3.org/2000/svg">
<ellipse cx="183.807" cy="154.537" rx="12.6591" ry="12.2305" transform="rotate(49.282 183.807 154.537)" fill="url(#paint0_radial_443_1233)"/>
<ellipse cx="183.807" cy="154.537" rx="12.6591" ry="12.2305" transform="rotate(49.282 183.807 154.537)" fill="url(#paint1_radial_443_1233)" style="mix-blend-mode:overlay"/>
<ellipse cx="183.807" cy="154.537" rx="12.6591" ry="12.2305" transform="rotate(49.282 183.807 154.537)" fill="url(#paint2_radial_443_1233)" style="mix-blend-mode:soft-light"/>
<g filter="url(#filter0_f_443_1233)">
<ellipse cx="2.67359" cy="5.47001" rx="2.67359" ry="5.47001" transform="matrix(0.893066 -0.449926 0.463857 0.88591 183.731 147.979)" fill="#91A4C9"/>
</g>
<g filter="url(#filter1_f_443_1233)">
<ellipse cx="182.024" cy="148.414" rx="0.411983" ry="0.398035" transform="rotate(49.282 182.024 148.414)" fill="white"/>
</g>
<g filter="url(#filter2_f_443_1233)">
<ellipse cx="0.331868" cy="0.220883" rx="0.331868" ry="0.220883" transform="matrix(0.769113 0.639113 -0.630109 0.776507 188.198 147.002)" fill="white"/>
</g>
<g filter="url(#filter3_f_443_1233)">
<ellipse cx="0.539285" cy="0.341365" rx="0.539285" ry="0.341365" transform="matrix(0.769113 0.639113 -0.630109 0.776507 188.944 147.466)" fill="white"/>
</g>
<g filter="url(#filter4_f_443_1233)">
<path fill-rule="evenodd" clip-rule="evenodd" d="M185.111 148.529C185.301 148.642 185.558 148.913 185.706 149.079C185.74 149.117 185.781 149.151 185.827 149.178C186.063 149.318 186.36 149.243 186.491 149.011C186.622 148.779 186.537 148.477 186.302 148.337C186.182 148.266 186.063 148.096 186.052 147.955C186.036 147.749 185.921 147.55 185.728 147.436C185.421 147.254 185.035 147.352 184.864 147.654C184.694 147.956 184.804 148.348 185.111 148.529ZM187.055 150.19C187.019 150.187 186.994 150.137 187.011 150.106C187.142 149.874 187.058 149.572 186.822 149.433C186.586 149.293 186.289 149.368 186.158 149.6C186.027 149.832 186.112 150.134 186.347 150.274C186.415 150.314 186.488 150.336 186.561 150.342C186.597 150.345 186.622 150.395 186.605 150.426C186.474 150.658 186.559 150.96 186.794 151.1C186.841 151.128 186.867 151.186 186.864 151.241C186.858 151.376 186.938 151.521 187.078 151.604C187.162 151.654 187.237 151.758 187.265 151.853C187.281 151.911 187.309 151.974 187.347 152.036C187.462 152.223 187.63 152.33 187.721 152.275C187.812 152.221 187.792 152.025 187.677 151.837C187.652 151.796 187.624 151.759 187.595 151.727C187.548 151.673 187.55 151.574 187.585 151.512C187.677 151.349 187.598 151.127 187.41 151.015C187.406 151.013 187.405 151.008 187.408 151.004C187.427 150.982 187.444 150.958 187.458 150.932C187.589 150.7 187.505 150.398 187.269 150.259C187.201 150.218 187.128 150.196 187.055 150.19ZM188.54 155.348C188.409 155.581 188.111 155.656 187.876 155.516C187.64 155.376 187.555 155.075 187.686 154.842C187.743 154.741 187.747 154.581 187.703 154.473C187.665 154.378 187.666 154.275 187.714 154.189C187.726 154.168 187.741 154.148 187.757 154.131C187.811 154.075 187.84 153.969 187.798 153.901C187.683 153.714 187.663 153.518 187.755 153.463C187.846 153.408 188.013 153.516 188.129 153.703C188.218 153.847 188.25 153.997 188.217 154.083C188.215 154.088 188.217 154.094 188.222 154.097C188.41 154.209 188.489 154.431 188.397 154.594C188.384 154.618 188.367 154.639 188.348 154.658C188.343 154.663 188.344 154.671 188.35 154.675C188.586 154.814 188.671 155.116 188.54 155.348Z" fill="white" fill-opacity="0.5"/>
</g>
<mask id="mask0_443_1233" style="mask-type:alpha" maskUnits="userSpaceOnUse" x="171" y="142" width="26" height="26">
<ellipse cx="183.807" cy="154.537" rx="12.6591" ry="12.2305" transform="rotate(49.282 183.807 154.537)" fill="url(#paint3_radial_443_1233)"/>
<ellipse cx="183.807" cy="154.537" rx="12.6591" ry="12.2305" transform="rotate(49.282 183.807 154.537)" fill="url(#paint4_radial_443_1233)"/>
<ellipse cx="183.807" cy="154.537" rx="12.6591" ry="12.2305" transform="rotate(49.282 183.807 154.537)" fill="url(#paint5_radial_443_1233)"/>
</mask>
<g mask="url(#mask0_443_1233)">
<g filter="url(#filter5_f_443_1233)">
<path d="M192.569 160.057C192.569 160.057 191.428 164.493 190.25 165.693C175.195 174.451 165.401 161.234 172.364 162.044C181.016 163.051 184.617 166.901 192.569 160.057Z" fill="#91A4C9" fill-opacity="0.08"/>
</g>
</g>
<mask id="mask1_443_1233" style="mask-type:alpha" maskUnits="userSpaceOnUse" x="171" y="142" width="26" height="26">
<ellipse cx="183.807" cy="154.537" rx="12.6591" ry="12.2305" transform="rotate(49.282 183.807 154.537)" fill="url(#paint6_radial_443_1233)"/>
<ellipse cx="183.807" cy="154.537" rx="12.6591" ry="12.2305" transform="rotate(49.282 183.807 154.537)" fill="url(#paint7_radial_443_1233)"/>
<ellipse cx="183.807" cy="154.537" rx="12.6591" ry="12.2305" transform="rotate(49.282 183.807 154.537)" fill="url(#paint8_radial_443_1233)"/>
</mask>
<g mask="url(#mask1_443_1233)">
<g filter="url(#filter6_f_443_1233)">
<path d="M192.569 160.057C192.569 160.057 191.428 164.493 190.25 165.693C175.195 174.451 165.401 161.234 172.364 162.044C181.016 163.051 184.617 166.901 192.569 160.057Z" fill="#91A4C9" fill-opacity="0.08"/>
</g>
</g>
<ellipse cx="199.226" cy="208.074" rx="17.7227" ry="17.1228" transform="rotate(49.282 199.226 208.074)" fill="url(#paint9_radial_443_1233)"/>
<ellipse cx="199.226" cy="208.074" rx="17.7227" ry="17.1228" transform="rotate(49.282 199.226 208.074)" fill="url(#paint10_radial_443_1233)" style="mix-blend-mode:overlay"/>
<ellipse cx="199.226" cy="208.074" rx="17.7227" ry="17.1228" transform="rotate(49.282 199.226 208.074)" fill="url(#paint11_radial_443_1233)" style="mix-blend-mode:soft-light"/>
<g filter="url(#filter7_f_443_1233)">
<ellipse cx="3.74302" cy="7.65801" rx="3.74302" ry="7.65801" transform="matrix(0.893066 -0.449926 0.463857 0.88591 199.12 198.895)" fill="#91A4C9"/>
</g>
<g filter="url(#filter8_f_443_1233)">
<ellipse cx="196.726" cy="199.5" rx="0.576776" ry="0.55725" transform="rotate(49.282 196.726 199.5)" fill="white"/>
</g>
<g filter="url(#filter9_f_443_1233)">
<ellipse cx="0.464615" cy="0.309237" rx="0.464615" ry="0.309237" transform="matrix(0.769113 0.639113 -0.630109 0.776507 205.371 197.525)" fill="white"/>
</g>
<g filter="url(#filter10_f_443_1233)">
<ellipse cx="0.754999" cy="0.477911" rx="0.754999" ry="0.477911" transform="matrix(0.769113 0.639113 -0.630109 0.776507 206.416 198.173)" fill="white"/>
</g>
<g filter="url(#filter11_f_443_1233)">
<path fill-rule="evenodd" clip-rule="evenodd" d="M201.053 199.663C201.319 199.821 201.679 200.2 201.887 200.433C201.935 200.486 201.991 200.533 202.056 200.572C202.386 200.768 202.802 200.662 202.986 200.337C203.169 200.012 203.051 199.59 202.721 199.394C202.553 199.295 202.386 199.056 202.371 198.859C202.348 198.57 202.187 198.292 201.916 198.132C201.487 197.878 200.946 198.014 200.708 198.437C200.469 198.86 200.624 199.409 201.053 199.663ZM203.775 201.986C203.725 201.981 203.69 201.912 203.714 201.868C203.898 201.543 203.779 201.121 203.449 200.925C203.119 200.73 202.703 200.835 202.519 201.16C202.336 201.485 202.454 201.907 202.784 202.103C202.879 202.159 202.981 202.19 203.082 202.199C203.131 202.203 203.167 202.273 203.142 202.316C202.959 202.641 203.078 203.064 203.408 203.259C203.475 203.299 203.511 203.382 203.508 203.461C203.5 203.65 203.611 203.851 203.806 203.967C203.925 204.037 204.031 204.184 204.069 204.318C204.093 204.399 204.131 204.487 204.185 204.573C204.346 204.835 204.58 204.986 204.708 204.909C204.836 204.832 204.808 204.558 204.647 204.296C204.611 204.238 204.572 204.185 204.531 204.14C204.465 204.065 204.468 203.925 204.517 203.839C204.645 203.611 204.536 203.3 204.272 203.143C204.265 203.139 204.263 203.13 204.268 203.124C204.294 203.094 204.317 203.06 204.337 203.025C204.521 202.699 204.402 202.277 204.072 202.082C203.978 202.025 203.876 201.994 203.775 201.986ZM205.855 209.21C205.671 209.535 205.255 209.64 204.925 209.444C204.595 209.249 204.476 208.826 204.66 208.501C204.739 208.36 204.744 208.137 204.682 207.986C204.628 207.853 204.629 207.708 204.697 207.586C204.714 207.556 204.735 207.529 204.758 207.505C204.833 207.426 204.874 207.278 204.816 207.183C204.655 206.921 204.627 206.647 204.755 206.57C204.883 206.493 205.117 206.644 205.278 206.906C205.404 207.109 205.448 207.32 205.402 207.44C205.4 207.447 205.402 207.454 205.408 207.457C205.672 207.614 205.782 207.925 205.653 208.153C205.635 208.186 205.612 208.215 205.586 208.241C205.579 208.248 205.58 208.261 205.589 208.266C205.919 208.462 206.038 208.884 205.855 209.21Z" fill="white" fill-opacity="0.5"/>
</g>
<mask id="mask2_443_1233" style="mask-type:alpha" maskUnits="userSpaceOnUse" x="181" y="190" width="36" height="36">
<ellipse cx="199.226" cy="208.074" rx="17.7227" ry="17.1228" transform="rotate(49.282 199.226 208.074)" fill="url(#paint12_radial_443_1233)"/>
<ellipse cx="199.226" cy="208.074" rx="17.7227" ry="17.1228" transform="rotate(49.282 199.226 208.074)" fill="url(#paint13_radial_443_1233)"/>
<ellipse cx="199.226" cy="208.074" rx="17.7227" ry="17.1228" transform="rotate(49.282 199.226 208.074)" fill="url(#paint14_radial_443_1233)"/>
</mask>
<g mask="url(#mask2_443_1233)">
<g filter="url(#filter12_f_443_1233)">
<path d="M211.493 215.802C211.493 215.802 209.894 222.013 208.246 223.693C187.168 235.954 173.457 217.45 183.204 218.585C195.318 219.995 200.359 225.384 211.493 215.802Z" fill="#91A4C9" fill-opacity="0.08"/>
</g>
</g>
<mask id="mask3_443_1233" style="mask-type:alpha" maskUnits="userSpaceOnUse" x="181" y="190" width="36" height="36">
<ellipse cx="199.226" cy="208.074" rx="17.7227" ry="17.1228" transform="rotate(49.282 199.226 208.074)" fill="url(#paint15_radial_443_1233)"/>
<ellipse cx="199.226" cy="208.074" rx="17.7227" ry="17.1228" transform="rotate(49.282 199.226 208.074)" fill="url(#paint16_radial_443_1233)"/>
<ellipse cx="199.226" cy="208.074" rx="17.7227" ry="17.1228" transform="rotate(49.282 199.226 208.074)" fill="url(#paint17_radial_443_1233)"/>
</mask>
<g mask="url(#mask3_443_1233)">
<g filter="url(#filter13_f_443_1233)">
<path d="M211.493 215.802C211.493 215.802 209.894 222.013 208.246 223.693C187.168 235.954 173.457 217.45 183.204 218.585C195.318 219.995 200.359 225.384 211.493 215.802Z" fill="#91A4C9" fill-opacity="0.08"/>
</g>
</g>
<ellipse cx="144.047" cy="187.086" rx="25.3182" ry="24.4611" transform="rotate(49.282 144.047 187.086)" fill="url(#paint18_radial_443_1233)"/>
<ellipse cx="144.047" cy="187.086" rx="25.3182" ry="24.4611" transform="rotate(49.282 144.047 187.086)" fill="url(#paint19_radial_443_1233)" style="mix-blend-mode:overlay"/>
<ellipse cx="144.047" cy="187.086" rx="25.3182" ry="24.4611" transform="rotate(49.282 144.047 187.086)" fill="url(#paint20_radial_443_1233)" style="mix-blend-mode:soft-light"/>
<g filter="url(#filter14_f_443_1233)">
<ellipse cx="5.34718" cy="10.94" rx="5.34718" ry="10.94" transform="matrix(0.893066 -0.449926 0.463857 0.88591 143.895 173.974)" fill="#91A4C9"/>
</g>
<g filter="url(#filter15_f_443_1233)">
<ellipse cx="140.477" cy="174.841" rx="0.823965" ry="0.796071" transform="rotate(49.282 140.477 174.841)" fill="white"/>
</g>
<g filter="url(#filter16_f_443_1233)">
<ellipse cx="0.663735" cy="0.441766" rx="0.663735" ry="0.441766" transform="matrix(0.769113 0.639113 -0.630109 0.776507 152.827 172.019)" fill="white"/>
</g>
<g filter="url(#filter17_f_443_1233)">
<ellipse cx="1.07857" cy="0.68273" rx="1.07857" ry="0.68273" transform="matrix(0.769113 0.639113 -0.630109 0.776507 154.318 172.944)" fill="white"/>
</g>
<g filter="url(#filter18_f_443_1233)">
<path fill-rule="evenodd" clip-rule="evenodd" d="M146.658 175.073C147.038 175.299 147.55 175.84 147.846 176.172C147.915 176.249 147.996 176.317 148.09 176.372C148.561 176.651 149.156 176.501 149.418 176.037C149.68 175.572 149.51 174.969 149.039 174.69C148.799 174.547 148.562 174.207 148.541 173.927C148.509 173.513 148.279 173.116 147.892 172.886C147.279 172.523 146.506 172.718 146.165 173.322C145.824 173.926 146.045 174.71 146.658 175.073ZM150.547 178.393C150.476 178.387 150.425 178.288 150.461 178.226C150.723 177.761 150.553 177.158 150.082 176.879C149.61 176.599 149.016 176.749 148.753 177.214C148.491 177.678 148.661 178.282 149.132 178.561C149.268 178.641 149.413 178.686 149.558 178.698C149.628 178.704 149.679 178.803 149.644 178.865C149.382 179.33 149.552 179.933 150.023 180.212C150.118 180.269 150.17 180.387 150.165 180.499C150.153 180.769 150.312 181.057 150.592 181.223C150.76 181.323 150.912 181.532 150.967 181.723C151 181.839 151.055 181.965 151.131 182.088C151.362 182.462 151.697 182.677 151.879 182.567C152.062 182.458 152.022 182.065 151.792 181.691C151.741 181.609 151.685 181.534 151.627 181.469C151.532 181.362 151.537 181.163 151.607 181.039C151.79 180.714 151.633 180.269 151.256 180.046C151.247 180.04 151.245 180.028 151.252 180.021C151.289 179.977 151.322 179.929 151.351 179.877C151.613 179.413 151.444 178.809 150.972 178.53C150.837 178.45 150.692 178.405 150.547 178.393ZM153.517 188.712C153.255 189.177 152.66 189.327 152.189 189.048C151.717 188.768 151.548 188.165 151.81 187.7C151.924 187.498 151.931 187.179 151.844 186.961C151.767 186.772 151.769 186.566 151.866 186.394C151.89 186.352 151.917 186.315 151.949 186.281C152.057 186.167 152.116 185.952 152.032 185.816C151.802 185.441 151.763 185.049 151.945 184.939C152.127 184.83 152.462 185.044 152.693 185.419C152.871 185.707 152.935 186.007 152.871 186.179C152.867 186.19 152.871 186.204 152.881 186.21C153.258 186.433 153.415 186.878 153.232 187.204C153.205 187.252 153.172 187.294 153.134 187.332C153.124 187.341 153.126 187.358 153.138 187.365C153.609 187.645 153.779 188.248 153.517 188.712Z" fill="white" fill-opacity="0.5"/>
</g>
<mask id="mask4_443_1233" style="mask-type:alpha" maskUnits="userSpaceOnUse" x="119" y="162" width="50" height="51">
<ellipse cx="144.047" cy="187.086" rx="25.3182" ry="24.4611" transform="rotate(49.282 144.047 187.086)" fill="url(#paint21_radial_443_1233)"/>
<ellipse cx="144.047" cy="187.086" rx="25.3182" ry="24.4611" transform="rotate(49.282 144.047 187.086)" fill="url(#paint22_radial_443_1233)"/>
<ellipse cx="144.047" cy="187.086" rx="25.3182" ry="24.4611" transform="rotate(49.282 144.047 187.086)" fill="url(#paint23_radial_443_1233)"/>
</mask>
<g mask="url(#mask4_443_1233)">
<g filter="url(#filter19_f_443_1233)">
<path d="M161.57 198.127C161.57 198.127 159.286 207.001 156.932 209.401C126.82 226.915 107.232 200.482 121.158 202.103C138.463 204.117 145.665 211.817 161.57 198.127Z" fill="#91A4C9" fill-opacity="0.08"/>
</g>
</g>
<mask id="mask5_443_1233" style="mask-type:alpha" maskUnits="userSpaceOnUse" x="119" y="162" width="50" height="51">
<ellipse cx="144.047" cy="187.086" rx="25.3182" ry="24.4611" transform="rotate(49.282 144.047 187.086)" fill="url(#paint24_radial_443_1233)"/>
<ellipse cx="144.047" cy="187.086" rx="25.3182" ry="24.4611" transform="rotate(49.282 144.047 187.086)" fill="url(#paint25_radial_443_1233)"/>
<ellipse cx="144.047" cy="187.086" rx="25.3182" ry="24.4611" transform="rotate(49.282 144.047 187.086)" fill="url(#paint26_radial_443_1233)"/>
</mask>
<g mask="url(#mask5_443_1233)">
<g filter="url(#filter20_f_443_1233)">
<path d="M161.57 198.127C161.57 198.127 159.286 207.001 156.932 209.401C126.82 226.915 107.232 200.482 121.158 202.103C138.463 204.117 145.665 211.817 161.57 198.127Z" fill="#91A4C9" fill-opacity="0.08"/>
</g>
</g>
<defs>
<filter id="filter0_f_443_1233" x="39.1015" y="0.558044" width="299.109" height="302.129" filterUnits="userSpaceOnUse" color-interpolation-filters="sRGB">
<feFlood flood-opacity="0" result="BackgroundImageFix"/>
<feBlend mode="normal" in="SourceGraphic" in2="BackgroundImageFix" result="shape"/>
<feGaussianBlur stdDeviation="73.0352" result="effect1_foregroundBlur_443_1233"/>
</filter>
<filter id="filter1_f_443_1233" x="173.83" y="140.218" width="16.3885" height="16.3929" filterUnits="userSpaceOnUse" color-interpolation-filters="sRGB">
<feFlood flood-opacity="0" result="BackgroundImageFix"/>
<feBlend mode="normal" in="SourceGraphic" in2="BackgroundImageFix" result="shape"/>
<feGaussianBlur stdDeviation="3.89521" result="effect1_foregroundBlur_443_1233"/>
</filter>
<filter id="filter2_f_443_1233" x="180.233" y="139.322" width="16.1629" height="16.1262" filterUnits="userSpaceOnUse" color-interpolation-filters="sRGB">
<feFlood flood-opacity="0" result="BackgroundImageFix"/>
<feBlend mode="normal" in="SourceGraphic" in2="BackgroundImageFix" result="shape"/>
<feGaussianBlur stdDeviation="3.89521" result="effect1_foregroundBlur_443_1233"/>
</filter>
<filter id="filter3_f_443_1233" x="180.886" y="139.851" width="16.5154" height="16.4505" filterUnits="userSpaceOnUse" color-interpolation-filters="sRGB">
<feFlood flood-opacity="0" result="BackgroundImageFix"/>
<feBlend mode="normal" in="SourceGraphic" in2="BackgroundImageFix" result="shape"/>
<feGaussianBlur stdDeviation="3.89521" result="effect1_foregroundBlur_443_1233"/>
</filter>
<filter id="filter4_f_443_1233" x="177.016" y="139.576" width="19.3532" height="23.7775" filterUnits="userSpaceOnUse" color-interpolation-filters="sRGB">
<feFlood flood-opacity="0" result="BackgroundImageFix"/>
<feBlend mode="normal" in="SourceGraphic" in2="BackgroundImageFix" result="shape"/>
<feGaussianBlur stdDeviation="3.88395" result="effect1_foregroundBlur_443_1233"/>
</filter>
<filter id="filter5_f_443_1233" x="158.392" y="148.371" width="45.8625" height="32.0182" filterUnits="userSpaceOnUse" color-interpolation-filters="sRGB">
<feFlood flood-opacity="0" result="BackgroundImageFix"/>
<feBlend mode="normal" in="SourceGraphic" in2="BackgroundImageFix" result="shape"/>
<feGaussianBlur stdDeviation="5.84281" result="effect1_foregroundBlur_443_1233"/>
</filter>
<filter id="filter6_f_443_1233" x="158.392" y="148.371" width="45.8625" height="32.0182" filterUnits="userSpaceOnUse" color-interpolation-filters="sRGB">
<feFlood flood-opacity="0" result="BackgroundImageFix"/>
<feBlend mode="normal" in="SourceGraphic" in2="BackgroundImageFix" result="shape"/>
<feGaussianBlur stdDeviation="5.84281" result="effect1_foregroundBlur_443_1233"/>
</filter>
<filter id="filter7_f_443_1233" x="55.0673" y="50.933" width="301.896" height="306.125" filterUnits="userSpaceOnUse" color-interpolation-filters="sRGB">
<feFlood flood-opacity="0" result="BackgroundImageFix"/>
<feBlend mode="normal" in="SourceGraphic" in2="BackgroundImageFix" result="shape"/>
<feGaussianBlur stdDeviation="73.0352" result="effect1_foregroundBlur_443_1233"/>
</filter>
<filter id="filter8_f_443_1233" x="188.371" y="191.141" width="16.7117" height="16.718" filterUnits="userSpaceOnUse" color-interpolation-filters="sRGB">
<feFlood flood-opacity="0" result="BackgroundImageFix"/>
<feBlend mode="normal" in="SourceGraphic" in2="BackgroundImageFix" result="shape"/>
<feGaussianBlur stdDeviation="3.89521" result="effect1_foregroundBlur_443_1233"/>
</filter>
<filter id="filter9_f_443_1233" x="197.337" y="189.89" width="16.3943" height="16.3445" filterUnits="userSpaceOnUse" color-interpolation-filters="sRGB">
<feFlood flood-opacity="0" result="BackgroundImageFix"/>
<feBlend mode="normal" in="SourceGraphic" in2="BackgroundImageFix" result="shape"/>
<feGaussianBlur stdDeviation="3.89521" result="effect1_foregroundBlur_443_1233"/>
</filter>
<filter id="filter10_f_443_1233" x="198.251" y="190.627" width="16.8894" height="16.7986" filterUnits="userSpaceOnUse" color-interpolation-filters="sRGB">
<feFlood flood-opacity="0" result="BackgroundImageFix"/>
<feBlend mode="normal" in="SourceGraphic" in2="BackgroundImageFix" result="shape"/>
<feGaussianBlur stdDeviation="3.89521" result="effect1_foregroundBlur_443_1233"/>
</filter>
<filter id="filter11_f_443_1233" x="192.828" y="190.236" width="20.8805" height="27.0744" filterUnits="userSpaceOnUse" color-interpolation-filters="sRGB">
<feFlood flood-opacity="0" result="BackgroundImageFix"/>
<feBlend mode="normal" in="SourceGraphic" in2="BackgroundImageFix" result="shape"/>
<feGaussianBlur stdDeviation="3.88395" result="effect1_foregroundBlur_443_1233"/>
</filter>
<filter id="filter12_f_443_1233" x="168.318" y="204.116" width="54.8595" height="35.4772" filterUnits="userSpaceOnUse" color-interpolation-filters="sRGB">
<feFlood flood-opacity="0" result="BackgroundImageFix"/>
<feBlend mode="normal" in="SourceGraphic" in2="BackgroundImageFix" result="shape"/>
<feGaussianBlur stdDeviation="5.84281" result="effect1_foregroundBlur_443_1233"/>
</filter>
<filter id="filter13_f_443_1233" x="168.318" y="204.116" width="54.8595" height="35.4772" filterUnits="userSpaceOnUse" color-interpolation-filters="sRGB">
<feFlood flood-opacity="0" result="BackgroundImageFix"/>
<feBlend mode="normal" in="SourceGraphic" in2="BackgroundImageFix" result="shape"/>
<feGaussianBlur stdDeviation="5.84281" result="effect1_foregroundBlur_443_1233"/>
</filter>
<filter id="filter14_f_443_1233" x="0.705994" y="25.2016" width="306.077" height="312.117" filterUnits="userSpaceOnUse" color-interpolation-filters="sRGB">
<feFlood flood-opacity="0" result="BackgroundImageFix"/>
<feBlend mode="normal" in="SourceGraphic" in2="BackgroundImageFix" result="shape"/>
<feGaussianBlur stdDeviation="73.0352" result="effect1_foregroundBlur_443_1233"/>
</filter>
<filter id="filter15_f_443_1233" x="131.879" y="166.238" width="17.1971" height="17.2054" filterUnits="userSpaceOnUse" color-interpolation-filters="sRGB">
<feFlood flood-opacity="0" result="BackgroundImageFix"/>
<feBlend mode="normal" in="SourceGraphic" in2="BackgroundImageFix" result="shape"/>
<feGaussianBlur stdDeviation="3.89521" result="effect1_foregroundBlur_443_1233"/>
</filter>
<filter id="filter16_f_443_1233" x="144.687" y="164.45" width="16.7439" height="16.6721" filterUnits="userSpaceOnUse" color-interpolation-filters="sRGB">
<feFlood flood-opacity="0" result="BackgroundImageFix"/>
<feBlend mode="normal" in="SourceGraphic" in2="BackgroundImageFix" result="shape"/>
<feGaussianBlur stdDeviation="3.89521" result="effect1_foregroundBlur_443_1233"/>
</filter>
<filter id="filter17_f_443_1233" x="145.993" y="165.504" width="17.45" height="17.3206" filterUnits="userSpaceOnUse" color-interpolation-filters="sRGB">
<feFlood flood-opacity="0" result="BackgroundImageFix"/>
<feBlend mode="normal" in="SourceGraphic" in2="BackgroundImageFix" result="shape"/>
<feGaussianBlur stdDeviation="3.89521" result="effect1_foregroundBlur_443_1233"/>
</filter>
<filter id="filter18_f_443_1233" x="138.237" y="164.936" width="23.1706" height="32.0202" filterUnits="userSpaceOnUse" color-interpolation-filters="sRGB">
<feFlood flood-opacity="0" result="BackgroundImageFix"/>
<feBlend mode="normal" in="SourceGraphic" in2="BackgroundImageFix" result="shape"/>
<feGaussianBlur stdDeviation="3.88395" result="effect1_foregroundBlur_443_1233"/>
</filter>
<filter id="filter19_f_443_1233" x="104.9" y="186.442" width="68.3547" height="40.6652" filterUnits="userSpaceOnUse" color-interpolation-filters="sRGB">
<feFlood flood-opacity="0" result="BackgroundImageFix"/>
<feBlend mode="normal" in="SourceGraphic" in2="BackgroundImageFix" result="shape"/>
<feGaussianBlur stdDeviation="5.84281" result="effect1_foregroundBlur_443_1233"/>
</filter>
<filter id="filter20_f_443_1233" x="104.9" y="186.442" width="68.3547" height="40.6652" filterUnits="userSpaceOnUse" color-interpolation-filters="sRGB">
<feFlood flood-opacity="0" result="BackgroundImageFix"/>
<feBlend mode="normal" in="SourceGraphic" in2="BackgroundImageFix" result="shape"/>
<feGaussianBlur stdDeviation="5.84281" result="effect1_foregroundBlur_443_1233"/>
</filter>
<radialGradient id="paint0_radial_443_1233" cx="0" cy="0" r="1" gradientUnits="userSpaceOnUse" gradientTransform="translate(180.1 152.004) rotate(24.3357) scale(28.3627 26.9225)">
<stop offset="0.354167" stop-color="white"/>
<stop offset="0.810035" stop-color="#91A4C9"/>
</radialGradient>
<radialGradient id="paint1_radial_443_1233" cx="0" cy="0" r="1" gradientUnits="userSpaceOnUse" gradientTransform="translate(177.89 162.027) rotate(-52.9133) scale(16.1483 18.2273)">
<stop stop-opacity="0.61"/>
<stop offset="1" stop-opacity="0"/>
</radialGradient>
<radialGradient id="paint2_radial_443_1233" cx="0" cy="0" r="1" gradientUnits="userSpaceOnUse" gradientTransform="translate(191.635 154.537) rotate(180) scale(21.6104 16.7986)">
<stop stop-color="white" stop-opacity="0"/>
<stop offset="0.827012" stop-color="white" stop-opacity="0"/>
<stop offset="1" stop-color="white"/>
</radialGradient>
<radialGradient id="paint3_radial_443_1233" cx="0" cy="0" r="1" gradientUnits="userSpaceOnUse" gradientTransform="translate(180.1 152.004) rotate(24.3357) scale(28.3627 26.9225)">
<stop offset="0.354167" stop-color="#DAE5FC"/>
<stop offset="0.810035" stop-color="#91A4C9"/>
</radialGradient>
<radialGradient id="paint4_radial_443_1233" cx="0" cy="0" r="1" gradientUnits="userSpaceOnUse" gradientTransform="translate(177.89 162.027) rotate(-52.9133) scale(16.1483 18.2273)">
<stop stop-opacity="0.61"/>
<stop offset="1" stop-opacity="0"/>
</radialGradient>
<radialGradient id="paint5_radial_443_1233" cx="0" cy="0" r="1" gradientUnits="userSpaceOnUse" gradientTransform="translate(191.635 154.537) rotate(180) scale(21.6104 16.7986)">
<stop stop-color="white" stop-opacity="0"/>
<stop offset="0.827012" stop-color="white" stop-opacity="0"/>
<stop offset="1" stop-color="white"/>
</radialGradient>
<radialGradient id="paint6_radial_443_1233" cx="0" cy="0" r="1" gradientUnits="userSpaceOnUse" gradientTransform="translate(180.1 152.004) rotate(24.3357) scale(28.3627 26.9225)">
<stop offset="0.354167" stop-color="#DAE5FC"/>
<stop offset="0.810035" stop-color="#91A4C9"/>
</radialGradient>
<radialGradient id="paint7_radial_443_1233" cx="0" cy="0" r="1" gradientUnits="userSpaceOnUse" gradientTransform="translate(177.89 162.027) rotate(-52.9133) scale(16.1483 18.2273)">
<stop stop-opacity="0.61"/>
<stop offset="1" stop-opacity="0"/>
</radialGradient>
<radialGradient id="paint8_radial_443_1233" cx="0" cy="0" r="1" gradientUnits="userSpaceOnUse" gradientTransform="translate(191.635 154.537) rotate(180) scale(21.6104 16.7986)">
<stop stop-color="white" stop-opacity="0"/>
<stop offset="0.827012" stop-color="white" stop-opacity="0"/>
<stop offset="1" stop-color="white"/>
</radialGradient>
<radialGradient id="paint9_radial_443_1233" cx="0" cy="0" r="1" gradientUnits="userSpaceOnUse" gradientTransform="translate(194.035 204.527) rotate(24.3357) scale(39.7077 37.6915)">
<stop offset="0.354167" stop-color="white"/>
<stop offset="0.810035" stop-color="#91A4C9"/>
</radialGradient>
<radialGradient id="paint10_radial_443_1233" cx="0" cy="0" r="1" gradientUnits="userSpaceOnUse" gradientTransform="translate(190.941 218.56) rotate(-52.9133) scale(22.6076 25.5182)">
<stop stop-opacity="0.61"/>
<stop offset="1" stop-opacity="0"/>
</radialGradient>
<radialGradient id="paint11_radial_443_1233" cx="0" cy="0" r="1" gradientUnits="userSpaceOnUse" gradientTransform="translate(210.185 208.074) rotate(180) scale(30.2545 23.5181)">
<stop stop-color="white" stop-opacity="0"/>
<stop offset="0.827012" stop-color="white" stop-opacity="0"/>
<stop offset="1" stop-color="white"/>
</radialGradient>
<radialGradient id="paint12_radial_443_1233" cx="0" cy="0" r="1" gradientUnits="userSpaceOnUse" gradientTransform="translate(194.035 204.527) rotate(24.3357) scale(39.7077 37.6915)">
<stop offset="0.354167" stop-color="#DAE5FC"/>
<stop offset="0.810035" stop-color="#91A4C9"/>
</radialGradient>
<radialGradient id="paint13_radial_443_1233" cx="0" cy="0" r="1" gradientUnits="userSpaceOnUse" gradientTransform="translate(190.941 218.56) rotate(-52.9133) scale(22.6076 25.5182)">
<stop stop-opacity="0.61"/>
<stop offset="1" stop-opacity="0"/>
</radialGradient>
<radialGradient id="paint14_radial_443_1233" cx="0" cy="0" r="1" gradientUnits="userSpaceOnUse" gradientTransform="translate(210.185 208.074) rotate(180) scale(30.2545 23.5181)">
<stop stop-color="white" stop-opacity="0"/>
<stop offset="0.827012" stop-color="white" stop-opacity="0"/>
<stop offset="1" stop-color="white"/>
</radialGradient>
<radialGradient id="paint15_radial_443_1233" cx="0" cy="0" r="1" gradientUnits="userSpaceOnUse" gradientTransform="translate(194.035 204.527) rotate(24.3357) scale(39.7077 37.6915)">
<stop offset="0.354167" stop-color="#DAE5FC"/>
<stop offset="0.810035" stop-color="#91A4C9"/>
</radialGradient>
<radialGradient id="paint16_radial_443_1233" cx="0" cy="0" r="1" gradientUnits="userSpaceOnUse" gradientTransform="translate(190.941 218.56) rotate(-52.9133) scale(22.6076 25.5182)">
<stop stop-opacity="0.61"/>
<stop offset="1" stop-opacity="0"/>
</radialGradient>
<radialGradient id="paint17_radial_443_1233" cx="0" cy="0" r="1" gradientUnits="userSpaceOnUse" gradientTransform="translate(210.185 208.074) rotate(180) scale(30.2545 23.5181)">
<stop stop-color="white" stop-opacity="0"/>
<stop offset="0.827012" stop-color="white" stop-opacity="0"/>
<stop offset="1" stop-color="white"/>
</radialGradient>
<radialGradient id="paint18_radial_443_1233" cx="0" cy="0" r="1" gradientUnits="userSpaceOnUse" gradientTransform="translate(136.631 182.02) rotate(24.3357) scale(56.7253 53.845)">
<stop offset="0.354167" stop-color="white"/>
<stop offset="0.810035" stop-color="#91A4C9"/>
</radialGradient>
<radialGradient id="paint19_radial_443_1233" cx="0" cy="0" r="1" gradientUnits="userSpaceOnUse" gradientTransform="translate(132.211 202.067) rotate(-52.9133) scale(32.2966 36.4546)">
<stop stop-opacity="0.61"/>
<stop offset="1" stop-opacity="0"/>
</radialGradient>
<radialGradient id="paint20_radial_443_1233" cx="0" cy="0" r="1" gradientUnits="userSpaceOnUse" gradientTransform="translate(159.702 187.086) rotate(180) scale(43.2207 33.5973)">
<stop stop-color="white" stop-opacity="0"/>
<stop offset="0.827012" stop-color="white" stop-opacity="0"/>
<stop offset="1" stop-color="white"/>
</radialGradient>
<radialGradient id="paint21_radial_443_1233" cx="0" cy="0" r="1" gradientUnits="userSpaceOnUse" gradientTransform="translate(136.631 182.02) rotate(24.3357) scale(56.7253 53.845)">
<stop offset="0.354167" stop-color="#DAE5FC"/>
<stop offset="0.810035" stop-color="#91A4C9"/>
</radialGradient>
<radialGradient id="paint22_radial_443_1233" cx="0" cy="0" r="1" gradientUnits="userSpaceOnUse" gradientTransform="translate(132.211 202.067) rotate(-52.9133) scale(32.2966 36.4546)">
<stop stop-opacity="0.61"/>
<stop offset="1" stop-opacity="0"/>
</radialGradient>
<radialGradient id="paint23_radial_443_1233" cx="0" cy="0" r="1" gradientUnits="userSpaceOnUse" gradientTransform="translate(159.702 187.086) rotate(180) scale(43.2207 33.5973)">
<stop stop-color="white" stop-opacity="0"/>
<stop offset="0.827012" stop-color="white" stop-opacity="0"/>
<stop offset="1" stop-color="white"/>
</radialGradient>
<radialGradient id="paint24_radial_443_1233" cx="0" cy="0" r="1" gradientUnits="userSpaceOnUse" gradientTransform="translate(136.631 182.02) rotate(24.3357) scale(56.7253 53.845)">
<stop offset="0.354167" stop-color="#DAE5FC"/>
<stop offset="0.810035" stop-color="#91A4C9"/>
</radialGradient>
<radialGradient id="paint25_radial_443_1233" cx="0" cy="0" r="1" gradientUnits="userSpaceOnUse" gradientTransform="translate(132.211 202.067) rotate(-52.9133) scale(32.2966 36.4546)">
<stop stop-opacity="0.61"/>
<stop offset="1" stop-opacity="0"/>
</radialGradient>
<radialGradient id="paint26_radial_443_1233" cx="0" cy="0" r="1" gradientUnits="userSpaceOnUse" gradientTransform="translate(159.702 187.086) rotate(180) scale(43.2207 33.5973)">
<stop stop-color="white" stop-opacity="0"/>
<stop offset="0.827012" stop-color="white" stop-opacity="0"/>
<stop offset="1" stop-color="white"/>
</radialGradient>
</defs>
</svg>
